<svg xmlns="http://www.w3.org/2000/svg" xmlns:xlink="http://www.w3.org/1999/xlink" xml:space="preserve" version="1.1" style="shape-rendering:geometricPrecision;text-rendering:geometricPrecision;image-rendering:optimizeQuality;" viewBox="0 0 333 416.25" x="0px" y="0px" fill-rule="evenodd" clip-rule="evenodd"><defs><style type="text/css">
   
    .fil0 {fill:black}
   
  </style></defs><g><path class="fil0" d="M120 88c23,-1 38,12 53,12 15,0 29,-13 53,-12 21,0 44,8 60,27 -23,11 -40,35 -40,63 0,30 20,55 46,64 -11,32 -29,62 -54,78 -32,17 -51,-13 -65,-13 -15,0 -33,30 -65,13 -38,-24 -61,-79 -66,-125 -9,-79 38,-107 78,-107zm49 -5c-1,-47 24,-69 67,-75 -8,51 -28,67 -67,75z"/></g><text x="0" y="348" fill="#000000" font-size="5px" font-weight="bold" font-family="'Helvetica Neue', Helvetica, Arial-Unicode, Arial, Sans-serif">Created by Ivy</text><text x="0" y="353" fill="#000000" font-size="5px" font-weight="bold" font-family="'Helvetica Neue', Helvetica, Arial-Unicode, Arial, Sans-serif">from the Noun Project</text></svg>