<svg xmlns="http://www.w3.org/2000/svg" xmlns:xlink="http://www.w3.org/1999/xlink" version="1.1" x="0px" y="0px" viewBox="0 0 512 640" style="enable-background:new 0 0 512 512;" xml:space="preserve"><g><g><g><path d="M490.547,295.062c3.396,3.496,5.491,8.279,5.491,13.52c0,5.251-2.211,10.148-5.719,13.656l-0.114,0.114     c-3.507,3.383-8.279,5.479-13.531,5.479c-5.25,0-10.149-2.211-13.531-5.594l-0.228-0.239c-3.396-3.496-5.489-8.166-5.489-13.417     c0-5.365,2.094-10.137,5.604-13.646l0.228-0.227c3.507-3.383,8.292-5.479,13.417-5.479c5.364,0,10.148,2.211,13.646,5.706     L490.547,295.062z M484.716,308.581c0-2.209-0.935-4.306-2.323-5.706c-1.526-1.401-3.508-2.336-5.719-2.336     c-2.209,0-4.191,0.935-5.604,2.336c-1.503,1.4-2.436,3.497-2.436,5.706c0,2.222,0.933,4.203,2.323,5.719     c1.525,1.4,3.508,2.334,5.717,2.334c2.211,0,4.192-0.934,5.719-2.334C483.781,312.784,484.716,310.803,484.716,308.581z"/><path d="M477.949,115.083c2.688,1.516,3.623,5.023,1.983,7.7c-0.457,0.935-1.163,1.515-1.983,1.981l-20.523,11.903     c-2.678,1.516-6.175,0.581-7.701-1.981c-1.628-2.802-0.695-6.186,1.982-7.813l12.143-6.892l-12.143-7.107     c-2.678-1.516-3.61-4.898-1.982-7.586c1.526-2.677,5.023-3.61,7.701-2.096L477.949,115.083z"/><path d="M436.318,152.182H267.891l6.539,26.585h45.947l-77.322,70.106c-15.866-21.812-52.839-67.532-78.616-105.098h57.852     v-20.286l0.7-4.556c-0.114,0-0.467,0-0.7,0v-1.868H30.308v26.71h56.917c22.165,17.268,106.607,123.174,110.222,133.791     c1.401,9.909,2.683,68.227-1.514,72.657c-8.281,8.861-46.188,6.538-55.289,7.119l-3.15,18.076     c1.982,0.114,4.551,0.114,7.466,0.114c21.694,0,65.551-1.401,80.365-1.401c11.776,0,26.709,0,41.29,0     c26.937,0,53.307,0,58.545,0.468l1.049-19.012c-8.396-1.4-54.355-0.112-60.648-1.628c-1.4-9.102-2.917-70.688-1.516-76.987     c6.306-18.418,102.759-93.183,113.374-95.985c2.324-0.467,5.945-1.287,9.909-2.221h31.027l4.898-7.107     c0.112-0.125,0.227-0.125,0.352-0.125l12.019-17.37c-0.115,0-0.479-0.126-0.594-0.126L436.318,152.182z M472.71,203.152     c2.563,3.498,3.497,8.042,2.323,12.245l-29.967,116.511c-0.582,2.107-1.514,3.976-2.803,5.491     c0.354,0.341,0.82,0.808,1.174,1.161c2.563,3.269,3.609,7.232,3.144,11.311l-4.19,27.884c-1.05,6.993-7.119,12.243-14.239,12.243     c-0.342,0-0.705,0-1.048-0.112l-14.352-1.05l-13.053-1.172c-7.358-0.581-13.075-6.766-13.075-14.227l-0.115-28.465     c0-4.078,1.755-8.042,4.784-10.729c0.479-0.467,0.935-0.808,1.401-1.047c-1.048-2.097-1.743-4.432-1.743-6.881l-0.705-120.02     c0-4.316,1.867-8.394,5.25-11.082c0.935-0.934,1.981-1.515,3.155-2.096h-9.682c-2.917,0.695-5.377,1.162-7.472,1.628     c-15.742,7.814-94.243,70.563-103.447,86.076c-0.592,8.635,0,41.291,0.923,59.491c5.251,0.114,11.55,0.114,16.448,0.114     c17.256,0.115,28.11,0.115,33.248,1.048c7.107,1.174,12.233,7.586,11.892,14.933l-1.049,18.896     c-0.112,3.851-1.868,7.461-4.784,10.023c-2.688,2.336-6.059,3.622-9.567,3.622c-0.343,0-0.693,0-1.048,0     c-5.719-0.466-44.673-0.466-57.497-0.466h-22.867h-18.423c-6.652,0-19.131,0.228-32.896,0.693     c-16.562,0.354-35.458,0.708-47.469,0.708c-3.149,0-5.831,0-7.933-0.114c-4.198,0-8.047-1.995-10.729-5.251     c-2.563-3.155-3.73-7.474-3.03-11.55l3.149-18.076c1.162-6.414,6.646-11.438,13.178-11.779c2.096-0.238,5.712-0.238,10.149-0.238     c6.76,0,25.542,0,33.824-2.222c1.281-12.824,0.934-47.349-0.12-59.013c-9.563-16.446-78.028-101.817-101.47-123.515H30.308     c-7.934,0-14.346-6.539-14.346-14.353v-26.71c0-7.928,6.412-14.34,14.346-14.34H222.29c6.652,0,12.25,4.43,13.879,10.615     c1.054,2.335,1.401,5.012,1.054,7.814l-0.467,3.382v19.238c0,7.813-6.532,14.353-14.466,14.353h-30.093     c12.717,17.256,26.363,34.99,38.026,50.15c5.479,6.993,10.496,13.531,14.927,19.363l38.026-34.523h-8.747     c-6.652,0-12.365-4.431-13.998-10.969l-6.534-26.585c-0.934-4.202,0-8.747,2.683-12.256c2.803-3.497,6.886-5.479,11.311-5.479     h168.428h0.114c7.939,0,14.228,6.412,14.228,14.352c0,2.096-0.342,4.078-1.162,5.946c-0.469,1.514-1.162,2.915-1.982,4.203     L435.51,179.7c-0.593,0.707-1.174,1.401-1.754,1.982l-3.509,5.136c-2.677,3.964-7.107,6.3-11.891,6.3h-2.209     c14.454,1.628,41.63,4.203,45.481,4.316C466.059,197.549,470.022,199.645,472.71,203.152z M431.183,328.297l29.978-116.521     c-5.011-0.114-50.617-4.431-56.563-5.593l0.693,120.133L431.183,328.297z M428.151,375.533l4.203-27.759l-14.933-0.819     l-16.561-1.982l0.114,28.465l13.063,1.047L428.151,375.533z"/><path d="M451.832,491.235c0,3.154-2.448,5.604-5.592,5.604h-29.285c-3.155,0-5.707-2.45-5.707-5.604     c0-3.03,2.552-5.594,5.707-5.594h29.285C449.384,485.642,451.832,488.205,451.832,491.235z"/><path d="M426.638,500.689c3.154,0,5.592,2.563,5.592,5.592c0,3.155-2.438,5.719-5.592,5.719h-62.75     c-3.144,0-5.604-2.563-5.604-5.719c0-3.029,2.46-5.592,5.604-5.592H426.638z"/><path d="M166.188,434.09c2.683,2.678,4.437,6.412,4.437,10.615c0,4.078-1.754,7.815-4.437,10.491     c-2.683,2.688-6.413,4.432-10.497,4.432c-4.197,0-7.933-1.743-10.615-4.432c-2.682-2.676-4.431-6.413-4.431-10.491     c0-4.203,1.749-7.938,4.431-10.615c2.683-2.688,6.418-4.43,10.615-4.43C159.774,429.66,163.505,431.402,166.188,434.09z      M159.308,444.705c0-1.06-0.348-1.992-1.048-2.573c-0.7-0.695-1.634-1.161-2.569-1.161c-1.047,0-1.982,0.466-2.563,1.161     c-0.701,0.581-1.167,1.514-1.167,2.573c0,0.923,0.466,1.857,1.167,2.563c0.581,0.695,1.516,1.05,2.563,1.05     c0.935,0,1.869-0.354,2.569-1.05C158.96,446.563,159.308,445.628,159.308,444.705z"/><path d="M131.316,18.165c0.814,3.029-0.934,6.185-3.97,6.879l-10.029,2.802c-3.029,0.694-6.065-1.048-6.879-4.089     c-0.82-2.916,1.048-6.06,3.964-6.88l10.029-2.676C127.466,13.494,130.616,15.248,131.316,18.165z"/><path d="M117.317,42.54c0.82,3.029-0.934,6.071-3.964,6.879c-3.035,0.82-6.065-1.048-6.879-3.964l-2.688-9.796     c-0.814-3.029,1.054-6.184,4.083-6.88c2.917-0.934,6.065,0.935,6.885,3.964L117.317,42.54z"/><path d="M109.618,13.619c0.82,3.03-1.048,6.06-3.964,6.88c-3.03,0.81-6.179-0.934-6.879-3.964l-2.568-9.454     c-0.814-3.029,0.934-6.059,3.97-6.88c3.029-0.819,6.065,0.935,6.879,3.965L109.618,13.619z"/><path d="M103.325,25.738c0.695,3.041-1.054,6.071-3.969,6.892l-10.263,2.791c-3.029,0.706-6.065-1.048-6.879-4.078     c-0.82-2.916,0.934-6.06,3.964-6.88l10.262-2.688C99.355,20.967,102.504,22.709,103.325,25.738z"/><polygon points="52.12,247.006 55.15,257.154 44.42,260.298 41.39,250.263    "/><polygon points="44.42,260.298 47.455,270.447 36.606,273.715 33.577,263.566    "/><polygon points="38.354,240.125 41.39,250.263 30.66,253.417 27.625,243.384    "/><polygon points="30.541,253.417 33.577,263.566 22.841,266.836 19.812,256.687    "/></g></g></g><text x="0" y="527" fill="#000000" font-size="5px" font-weight="bold" font-family="'Helvetica Neue', Helvetica, Arial-Unicode, Arial, Sans-serif">Created by ibrandify</text><text x="0" y="532" fill="#000000" font-size="5px" font-weight="bold" font-family="'Helvetica Neue', Helvetica, Arial-Unicode, Arial, Sans-serif">from the Noun Project</text></svg>