<svg xmlns="http://www.w3.org/2000/svg" xmlns:xlink="http://www.w3.org/1999/xlink" version="1.1" x="0px" y="0px" viewBox="0 0 70 87.5" style="enable-background:new 0 0 70 70;" xml:space="preserve"><g><path d="M47.0201416,32.0217857c0.1207886,0.1008911,0.203186,0.2266235,0.2634277,0.3612061l3.4064941,3.9083252   l3.652832-4.2426147c0.0082397-0.0073242,0.0114746-0.0178223,0.0200195-0.0249634   c0.0008545-0.0006714,0.0018921-0.0007935,0.0027466-0.0014648l13.5968628-15.7922955   C67.8731079,15.767271,67.4923096,15.4197979,67,15.4197979H41.9996338v10.9009399l4.9234009,5.6486206   C46.9543457,31.9899273,46.9906006,31.9972515,47.0201416,32.0217857z"/><polygon points="56.3312378,32.8088341 68,46.4995689 68,19.2527447  "/><path d="M51.4498291,38.4797935c-0.1894531,0.222168-0.4677734,0.3500977-0.7597656,0.3500977   s-0.5703125-0.1279297-0.7597656-0.3500977l-3.5606689-4.0893555l-4.3699951,5.3956299v10.7937012H67   c0.5596313,0,0.9992065-0.4394531,0.9998169-0.9990234L55.0115967,34.3419762L51.4498291,38.4797935z"/><polygon points="41.9996338,29.3716412 41.9996338,36.6093102 45.0366211,32.8595543  "/><path d="M38.8200073,2.0197732l-36,6.6600342C2.3499756,8.7697735,2,9.1798077,2,9.6697979v50.6599731   c0,0.4900513,0.3499756,0.9000244,0.8200073,0.9900513l36,6.659977C38.8800049,67.9898071,38.9400024,67.9998169,39,67.9998169   c0.2399902,0,0.4599609-0.0800171,0.6400146-0.2300415C39.8699951,67.5797729,40,67.2998047,40,66.9998169v-64   c0-0.2999878-0.1300049-0.5800171-0.3599854-0.7700195C39.4099731,2.0397928,39.1099854,1.9597758,38.8200073,2.0197732z    M26.4699707,45.2897911c-2,1.8599854-4.4599609,2.8500366-7.0100098,2.8500366c-0.25,0-0.4899902-0.0100098-0.7399902-0.0200195   c-5.9099731-0.4500122-10.5299683-6.210022-10.5299683-13.1199951c0-6.9100323,4.6199951-12.670042,10.5299683-13.1199932   c2.8099976-0.210022,5.5599976,0.7999878,7.75,2.8299561c2.6900024,2.4900513,4.2300415,6.2400513,4.2300415,10.2900372   S29.1599731,42.7998009,26.4699707,45.2897911z"/></g><text x="0" y="85" fill="#000000" font-size="5px" font-weight="bold" font-family="'Helvetica Neue', Helvetica, Arial-Unicode, Arial, Sans-serif">Created by Lars Meiertoberens</text><text x="0" y="90" fill="#000000" font-size="5px" font-weight="bold" font-family="'Helvetica Neue', Helvetica, Arial-Unicode, Arial, Sans-serif">from the Noun Project</text></svg>